<?xml version="1.0" standalone="no"?><!DOCTYPE svg PUBLIC "-//W3C//DTD SVG 1.1//EN" "http://www.w3.org/Graphics/SVG/1.1/DTD/svg11.dtd"><svg t="1646979020932" class="icon" viewBox="0 0 1024 1024" version="1.1" xmlns="http://www.w3.org/2000/svg" p-id="816" xmlns:xlink="http://www.w3.org/1999/xlink" width="200" height="200"><defs><style type="text/css"></style></defs><path d="M287 581l-1 283 36 34h387l48-49-7-294s-45-14-48-12-87 36-87 36-47-44-50-42-70 14-70 14l-63-35-85 23-60 42z" fill="#E8B49B" p-id="817"></path><path d="M314 562h60v311.1h-60z" fill="#D28A6C" p-id="818"></path><path d="M665 562h60v311.1h-60z" fill="#FFD6BD" p-id="819"></path><path d="M736 400c-17.1-0.6-32.9 5.2-45.1 15.2-7.2 5.9-17.3 7.2-25.6 2.9-9.9-5.2-21.2-8.1-33.2-8.1-6.7 0-13.3 0.9-19.5 2.7-8.1 2.3-16.6-1.5-20.6-8.9-15.5-28.5-45.7-47.8-80.4-47.8-33.6 0-62.9 18.1-78.9 45.1-5.9 10.1-18.7 13.7-29.1 8.4-8.1-4.1-17.3-6.5-27-6.5-19 0-35.9 8.9-46.8 22.7-4.5 5.7-12.1 7.8-18.9 5.2-8.6-3.4-17.9-5.1-27.7-4.8-38.4 1-69.4 33-69.1 71.4 0.3 39 31.9 70.5 71 70.5 26.1 0 48.9-14.1 61.2-35 4.7-8 13.7-12.6 23-11.4 2.4 0.3 4.8 0.4 7.3 0.4 15.1 0 28.9-5.6 39.4-14.9 8.1-7.2 20.5-6.3 27.7 1.7 16.7 18.5 41 30.2 67.9 30.2 14.5 0 28.2-3.4 40.3-9.3 10.1-5 22.4-3.2 30.6 4.5 12.9 12.3 30.4 19.8 49.6 19.8 19 0 36.3-7.4 49.2-19.4 7.1-6.6 17.5-8.5 26.4-4.7 8 3.3 16.7 5.2 25.9 5.2 37.6 0 68.1-30.8 67.5-68.6-0.7-35.8-29.5-65.2-65.1-66.5z" fill="#FFE8DA" p-id="820"></path><path d="M363.5 409.5c9.1 4.6 20 2.4 26.5-4.9-4.4-1-8.9-1.6-13.6-1.6-7 0-13.8 1.2-20 3.5 2.5 0.8 4.9 1.8 7.1 3zM736 400c-7.9-0.3-15.4 0.8-22.5 3 27.2 8.5 47.1 33.7 47.5 63.4 0.5 30.8-19.6 56.9-47.5 65.6 6.3 2 13 3 20 3 37.6 0 68.1-30.8 67.5-68.6-0.6-35.7-29.4-65.1-65-66.4zM625.2 418.1c8.3 4.3 18.4 3 25.6-2.9 0.8-0.7 1.7-1.3 2.6-2-6.8-2.1-13.9-3.2-21.4-3.2-6.7 0-13.3 0.9-19.5 2.7-0.2 0.1-0.4 0.1-0.6 0.1 4.7 1.3 9.1 3.1 13.3 5.3zM270.9 430.9c6.5 2.6 14 0.6 18.5-4.7-2.1-0.1-4.1-0.2-6.2-0.1-6.3 0.2-12.3 1.2-18.1 2.9 1.9 0.5 3.9 1.1 5.8 1.9zM551.9 403.8c4 7.4 12.5 11.2 20.6 8.9 6.2-1.7 12.7-2.7 19.5-2.7 1.9 0 3.9 0.1 5.8 0.2-2.4-1.6-4.4-3.8-5.9-6.5-15.5-28.5-45.7-47.8-80.4-47.8-6.9 0-13.6 0.8-20 2.2 26.1 5.9 47.9 22.8 60.4 45.7zM403.6 508.8c-7.3-8-19.6-8.9-27.7-1.7-10.5 9.3-24.3 14.9-39.4 14.9-2.5 0-4.9-0.2-7.3-0.4-9.3-1.1-18.3 3.4-23 11.4-9.1 15.4-23.7 27-41.2 32.1 6.3 1.9 13 2.9 20 2.9 26.1 0 48.9-14.1 61.2-35 4.7-8 13.7-12.6 23-11.4 2.4 0.3 4.8 0.4 7.3 0.4 11.5 0 22.2-3.3 31.3-8.9-1.5-1.4-2.9-2.8-4.2-4.3zM667.6 529.8c-8.9-3.7-19.3-1.9-26.4 4.7-8.2 7.7-18.2 13.5-29.2 16.7a73.2 73.2 0 0 0 20 2.8c19 0 36.3-7.4 49.2-19.4 0.2-0.2 0.5-0.4 0.7-0.6-5-0.9-9.8-2.3-14.3-4.2zM511.8 529.7c-6.4 3.1-13.2 5.6-20.3 7.1 6.4 1.4 13.1 2.2 20 2.2 10.7 0 20.9-1.8 30.5-5.2-8.2-7.4-20.2-9-30.2-4.1z" fill="#FFFFFF" p-id="821"></path><path d="M443.5 409.5c10.4 5.3 23.2 1.6 29.1-8.4 12.7-21.5 33.8-37.3 58.9-42.9-6.4-1.4-13.1-2.2-20-2.2-33.6 0-62.9 18.1-78.9 45.1-0.8 1.3-1.6 2.4-2.6 3.5 4.8 1.1 9.3 2.7 13.5 4.9zM705.2 418.1c8.3 4.3 18.4 3 25.6-2.9 6.6-5.4 14.3-9.6 22.6-12.2-5.6-1.7-11.4-2.8-17.5-3-16-0.6-30.8 4.4-42.6 13.2 4.2 1.3 8.2 3 11.9 4.9zM651.9 412.8c-4.5-1.3-9.3-2.2-14.1-2.6 4.1 2.8 9.2 3.8 14.1 2.6zM350.9 430.9c6.7 2.6 14.4 0.5 18.9-5.2 6.9-8.7 16.1-15.5 26.7-19.3-6.2-2.2-13-3.5-20-3.5-19 0-35.9 8.9-46.8 22.7-0.1 0.2-0.2 0.3-0.4 0.4 7.6 0.6 14.8 2.2 21.6 4.9zM254 497.5c-0.2-32.2 21.4-59.8 51-68.6-6.9-2-14.3-3.1-21.9-2.9-38.4 1-69.4 33-69.1 71.4 0.3 39 31.9 70.5 71 70.5 7 0 13.7-1 20-2.9-29.3-8.5-50.8-35.5-51-67.5zM747.6 529.8c-8.7-3.6-18.7-2-25.7 4.1 3.8 0.7 7.7 1 11.6 1 7 0 13.7-1.1 20-3-2-0.5-4-1.3-5.9-2.1zM483.6 508.8c-7.3-8-19.6-8.9-27.7-1.7-2.5 2.2-5.2 4.3-8.1 6 16.5 16 39 25.9 63.7 25.9 6.9 0 13.6-0.8 20-2.2-18.8-4.2-35.4-14.2-47.9-28zM622.4 534.2c-8.2-7.8-20.5-9.5-30.6-4.5-3.2 1.6-6.5 2.9-9.8 4.1 0.2 0.1 0.3 0.3 0.5 0.4 12.9 12.3 30.4 19.8 49.6 19.8 6.9 0 13.7-1 20-2.8-11.3-3.3-21.4-9.2-29.7-17z" fill="#FFD6BD" p-id="822"></path><path d="M428.5 323.5m-49.5 0a49.5 49.5 0 1 0 99 0 49.5 49.5 0 1 0-99 0Z" fill="#E8B49B" p-id="823"></path><path d="M428.5 274c-3.4 0-6.8 0.3-10 1 22.5 4.6 39.5 24.6 39.5 48.5s-17 43.9-39.5 48.5c3.2 0.7 6.6 1 10 1 27.3 0 49.5-22.2 49.5-49.5S455.8 274 428.5 274z" fill="#FFD6BD" p-id="824"></path><path d="M399 323.5c0-23.9 17-43.9 39.5-48.5-3.2-0.7-6.6-1-10-1-27.3 0-49.5 22.2-49.5 49.5s22.2 49.5 49.5 49.5c3.4 0 6.8-0.3 10-1-22.5-4.6-39.5-24.6-39.5-48.5z" fill="#D28A6C" p-id="825"></path><path d="M615.5 336.5m-49.5 0a49.5 49.5 0 1 0 99 0 49.5 49.5 0 1 0-99 0Z" fill="#E8B49B" p-id="826"></path><path d="M616.5 283c-3.4 0-6.8 0.3-10 1 22.5 4.6 39.5 24.6 39.5 48.5s-17 43.9-39.5 48.5c3.2 0.7 6.6 1 10 1 27.3 0 49.5-22.2 49.5-49.5S643.8 283 616.5 283z" fill="#FFD6BD" p-id="827"></path><path d="M587 332.5c0-23.9 17-43.9 39.5-48.5-3.2-0.7-6.6-1-10-1-27.3 0-49.5 22.2-49.5 49.5s22.2 49.5 49.5 49.5c3.4 0 6.8-0.3 10-1-22.5-4.6-39.5-24.6-39.5-48.5z" fill="#D28A6C" p-id="828"></path><path d="M395.5 420.9c-4.4 0-8.9-1-13.2-3.1-17.4-8.5-32.1-21.7-42.5-38-10.7-16.8-16.4-36.3-16.4-56.3 0-57.9 47.1-105 105-105s105 47.1 105 105c0 16.6-13.4 30-30 30s-30-13.4-30-30c0-24.8-20.2-45-45-45s-45 20.2-45 45c0 17.3 9.7 32.8 25.3 40.5 14.9 7.3 21 25.3 13.8 40.1-5.2 10.6-15.9 16.8-27 16.8z" fill="#561F00" p-id="829"></path><path d="M663.4 425.2c-8.6 0-17.2-3.7-23.1-10.8-10.6-12.7-8.8-31.7 3.9-42.2 10.4-8.6 16.3-21.2 16.3-34.7 0-24.8-20.2-45-45-45s-45 20.2-45 45c0 16.6-13.4 30-30 30s-30-13.4-30-30c0-57.9 47.1-105 105-105s105 47.1 105 105c0 31.3-13.8 60.8-38 80.8-5.6 4.7-12.4 6.9-19.1 6.9z" fill="#561F00" p-id="830"></path><path d="M617 284c-11 0-21.7-6.1-26.9-16.7l-41.9-84.4-68.5 79.7c-10.8 12.6-29.7 14-42.3 3.2-12.6-10.8-14-29.7-3.2-42.3l98-114c6.6-7.6 16.5-11.5 26.5-10.2s18.7 7.4 23.1 16.4l62 125c7.4 14.8 1.3 32.8-13.5 40.2-4.3 2.1-8.8 3.1-13.3 3.1z" fill="#561F00" p-id="831"></path><path d="M699.5 928.5H341.8c-47.7 0-86.5-38.8-86.5-86.5V578.5c0-16.6 13.4-30 30-30s30 13.4 30 30V842c0 14.6 11.9 26.5 26.5 26.5h357.7c14.6 0 26.5-11.9 26.5-26.5V577.1c0-16.6 13.4-30 30-30s30 13.4 30 30V842c0 47.7-38.8 86.5-86.5 86.5z" fill="#561F00" p-id="832"></path><path d="M756 689.3H640c-8.3 0-15-6.7-15-15s6.7-15 15-15h116c8.3 0 15 6.7 15 15s-6.8 15-15 15zM582 689.3H285.3c-8.3 0-15-6.7-15-15s6.7-15 15-15H582c8.3 0 15 6.7 15 15s-6.7 15-15 15zM756 786.3h-56c-8.3 0-15-6.7-15-15s6.7-15 15-15h56c8.3 0 15 6.7 15 15s-6.8 15-15 15zM642 786.3H285.3c-8.3 0-15-6.7-15-15s6.7-15 15-15H642c8.3 0 15 6.7 15 15s-6.7 15-15 15zM284.2 603.7c-61.3 0-111.2-49.9-111.2-111.2s49.9-111.2 111.2-111.2c11 0 21.9 1.6 32.3 4.8 18.2-15.4 41.5-24.1 65.8-24.1 6 0 12 0.5 17.8 1.5 25.4-35.9 67.1-58 112.1-58 26.4 0 52 7.5 74.1 21.7 14.9 9.6 27.7 21.8 37.9 36.1 15.5-1.2 31.3 0.6 46.1 5.4 18.9-12.3 40.9-19 63.8-19 64.4 0 116.8 52.4 116.8 116.8s-52.4 116.8-116.8 116.8c-10.9 0-21.5-1.5-31.8-4.4-19.9 14.2-43.7 21.8-68.7 21.8-28.6 0-55.6-10-76.9-28.1-14.3 4.9-29.4 7.4-44.6 7.4-29.3 0-57.7-9.5-81.1-26.5-14.8 8.1-31.5 12.4-48.8 12.4-4.7 0-9.3-0.3-13.9-0.9-20.7 24.3-51.3 38.7-84.1 38.7z m0-162.4c-28.2 0-51.2 23-51.2 51.2s23 51.2 51.2 51.2c18.9 0 36.1-10.3 45.1-27 7.2-13.4 23.4-19.3 37.5-13.6 5 2 10.2 3 15.5 3 11.1 0 21.6-4.3 29.5-12.2 5.8-5.7 13.7-8.9 21.9-8.7 8.2 0.2 15.9 3.7 21.4 9.8 14.6 16 35.4 25.2 57.1 25.2 13 0 25.8-3.3 37.1-9.5 12.8-7.1 28.9-3.8 38 7.7 11.3 14.3 28.2 22.5 46.3 22.5 15.7 0 30.5-6.1 41.6-17.2 9-9 22.7-11.3 34.2-5.8 7.7 3.7 16 5.6 24.6 5.6 31.3 0 56.8-25.5 56.8-56.8s-25.5-56.8-56.8-56.8c-14.4 0-28.2 5.4-38.7 15.3-9.3 8.7-23.1 10.5-34.4 4.6-8.5-4.5-17.7-6.7-27.3-6.7-5.6 0-11.1 0.8-16.4 2.3-14.1 4.1-29-2.6-35.3-15.8-12.8-26.7-40.2-43.9-69.7-43.9-30.6 0-58.3 18.1-70.7 46-3.3 7.5-9.5 13.3-17.2 16-7.7 2.8-16.2 2.3-23.5-1.3-5.8-2.8-12-4.3-18.5-4.3-13.6 0-26 6.3-34 17.4-9 12.3-25.7 16-39 8.5-7.7-4.5-16.2-6.7-25.1-6.7zM405.3 636.6h-100c-8.3 0-15-6.7-15-15s6.7-15 15-15h100c8.3 0 15 6.7 15 15s-6.7 15-15 15zM405.3 736.6h-100c-8.3 0-15-6.7-15-15s6.7-15 15-15h100c8.3 0 15 6.7 15 15s-6.7 15-15 15zM405.3 836.6h-100c-8.3 0-15-6.7-15-15s6.7-15 15-15h100c8.3 0 15 6.7 15 15s-6.7 15-15 15z" fill="#561F00" p-id="833"></path></svg>